<?xml version="1.0" encoding="utf-8" standalone="no"?>
<!DOCTYPE svg PUBLIC "-//W3C//DTD SVG 1.1//EN"
  "http://www.w3.org/Graphics/SVG/1.1/DTD/svg11.dtd">
<svg xmlns:xlink="http://www.w3.org/1999/xlink" width="460.8pt" height="345.6pt" viewBox="0 0 460.8 345.6" xmlns="http://www.w3.org/2000/svg" version="1.1">
 <metadata>
  <rdf:RDF xmlns:dc="http://purl.org/dc/elements/1.1/" xmlns:cc="http://creativecommons.org/ns#" xmlns:rdf="http://www.w3.org/1999/02/22-rdf-syntax-ns#">
   <cc:Work>
    <dc:type rdf:resource="http://purl.org/dc/dcmitype/StillImage"/>
    <dc:date>2026-08-26T23:52:13.611066</dc:date>
    <dc:format>image/svg+xml</dc:format>
    <dc:creator>
     <cc:Agent>
      <dc:title>Matplotlib v3.10.9, https://matplotlib.org/</dc:title>
     </cc:Agent>
    </dc:creator>
   </cc:Work>
  </rdf:RDF>
 </metadata>
 <defs>
  <style type="text/css">*{stroke-linejoin: round; stroke-linecap: butt}</style>
 </defs>
 <g id="figure_1">
  <g id="patch_1">
   <path d="M 0 345.6 
L 460.8 345.6 
L 460.8 0 
L 0 0 
z
" style="fill: #ffffff"/>
  </g>
  <g id="axes_1">
   <g id="patch_2">
    <path d="M 88.014685 317.72 
L 372.785315 317.72 
L 372.785315 26.88 
L 88.014685 26.88 
z
" style="fill: #ffffff"/>
   </g>
   <g id="matplotlib.axis_1">
    <g id="xtick_1">
     <g id="line2d_1">
      <defs>
       <path id="m3cdb2602d9" d="M 0 0 
L 0 3.5 
" style="stroke: #000000; stroke-width: 0.8"/>
      </defs>
      <g>
       <use xlink:href="#m3cdb2602d9" x="139.764576" y="317.72" style="stroke: #000000; stroke-width: 0.8"/>
      </g>
     </g>
     <g id="text_1">
      <!-- −1.0 -->
      <g transform="translate(127.62317 332.318437) scale(0.1 -0.1)">
       <defs>
        <path id="DejaVuSans-2212" d="M 678 2272 
L 4684 2272 
L 4684 1741 
L 678 1741 
L 678 2272 
z
" transform="scale(0.015625)"/>
        <path id="DejaVuSans-31" d="M 794 531 
L 1825 531 
L 1825 4091 
L 703 3866 
L 703 4441 
L 1819 4666 
L 2450 4666 
L 2450 531 
L 3481 531 
L 3481 0 
L 794 0 
L 794 531 
z
" transform="scale(0.015625)"/>
        <path id="DejaVuSans-2e" d="M 684 794 
L 1344 794 
L 1344 0 
L 684 0 
L 684 794 
z
" transform="scale(0.015625)"/>
        <path id="DejaVuSans-30" d="M 2034 4250 
Q 1547 4250 1301 3770 
Q 1056 3291 1056 2328 
Q 1056 1369 1301 889 
Q 1547 409 2034 409 
Q 2525 409 2770 889 
Q 3016 1369 3016 2328 
Q 3016 3291 2770 3770 
Q 2525 4250 2034 4250 
z
M 2034 4750 
Q 2819 4750 3233 4129 
Q 3647 3509 3647 2328 
Q 3647 1150 3233 529 
Q 2819 -91 2034 -91 
Q 1250 -91 836 529 
Q 422 1150 422 2328 
Q 422 3509 836 4129 
Q 1250 4750 2034 4750 
z
" transform="scale(0.015625)"/>
       </defs>
       <use xlink:href="#DejaVuSans-2212"/>
       <use xlink:href="#DejaVuSans-31" transform="translate(83.789062 0)"/>
       <use xlink:href="#DejaVuSans-2e" transform="translate(147.412109 0)"/>
       <use xlink:href="#DejaVuSans-30" transform="translate(179.199219 0)"/>
      </g>
     </g>
    </g>
    <g id="xtick_2">
     <g id="line2d_2">
      <g>
       <use xlink:href="#m3cdb2602d9" x="195.299564" y="317.72" style="stroke: #000000; stroke-width: 0.8"/>
      </g>
     </g>
     <g id="text_2">
      <!-- −0.5 -->
      <g transform="translate(183.158158 332.318437) scale(0.1 -0.1)">
       <defs>
        <path id="DejaVuSans-35" d="M 691 4666 
L 3169 4666 
L 3169 4134 
L 1269 4134 
L 1269 2991 
Q 1406 3038 1543 3061 
Q 1681 3084 1819 3084 
Q 2600 3084 3056 2656 
Q 3513 2228 3513 1497 
Q 3513 744 3044 326 
Q 2575 -91 1722 -91 
Q 1428 -91 1123 -41 
Q 819 9 494 109 
L 494 744 
Q 775 591 1075 516 
Q 1375 441 1709 441 
Q 2250 441 2565 725 
Q 2881 1009 2881 1497 
Q 2881 1984 2565 2268 
Q 2250 2553 1709 2553 
Q 1456 2553 1204 2497 
Q 953 2441 691 2322 
L 691 4666 
z
" transform="scale(0.015625)"/>
       </defs>
       <use xlink:href="#DejaVuSans-2212"/>
       <use xlink:href="#DejaVuSans-30" transform="translate(83.789062 0)"/>
       <use xlink:href="#DejaVuSans-2e" transform="translate(147.412109 0)"/>
       <use xlink:href="#DejaVuSans-35" transform="translate(179.199219 0)"/>
      </g>
     </g>
    </g>
    <g id="xtick_3">
     <g id="line2d_3">
      <g>
       <use xlink:href="#m3cdb2602d9" x="250.834552" y="317.72" style="stroke: #000000; stroke-width: 0.8"/>
      </g>
     </g>
     <g id="text_3">
      <!-- 0.0 -->
      <g transform="translate(242.88299 332.318437) scale(0.1 -0.1)">
       <use xlink:href="#DejaVuSans-30"/>
       <use xlink:href="#DejaVuSans-2e" transform="translate(63.623047 0)"/>
       <use xlink:href="#DejaVuSans-30" transform="translate(95.410156 0)"/>
      </g>
     </g>
    </g>
    <g id="xtick_4">
     <g id="line2d_4">
      <g>
       <use xlink:href="#m3cdb2602d9" x="306.36954" y="317.72" style="stroke: #000000; stroke-width: 0.8"/>
      </g>
     </g>
     <g id="text_4">
      <!-- 0.5 -->
      <g transform="translate(298.417978 332.318437) scale(0.1 -0.1)">
       <use xlink:href="#DejaVuSans-30"/>
       <use xlink:href="#DejaVuSans-2e" transform="translate(63.623047 0)"/>
       <use xlink:href="#DejaVuSans-35" transform="translate(95.410156 0)"/>
      </g>
     </g>
    </g>
    <g id="xtick_5">
     <g id="line2d_5">
      <g>
       <use xlink:href="#m3cdb2602d9" x="361.904529" y="317.72" style="stroke: #000000; stroke-width: 0.8"/>
      </g>
     </g>
     <g id="text_5">
      <!-- 1.0 -->
      <g transform="translate(353.952966 332.318437) scale(0.1 -0.1)">
       <use xlink:href="#DejaVuSans-31"/>
       <use xlink:href="#DejaVuSans-2e" transform="translate(63.623047 0)"/>
       <use xlink:href="#DejaVuSans-30" transform="translate(95.410156 0)"/>
      </g>
     </g>
    </g>
   </g>
   <g id="matplotlib.axis_2">
    <g id="ytick_1">
     <g id="line2d_6">
      <defs>
       <path id="m8c588abdfb" d="M 0 0 
L -3.5 0 
" style="stroke: #000000; stroke-width: 0.8"/>
      </defs>
      <g>
       <use xlink:href="#m8c588abdfb" x="88.014685" y="295.565251" style="stroke: #000000; stroke-width: 0.8"/>
      </g>
     </g>
     <g id="text_6">
      <!-- −1.0 -->
      <g transform="translate(56.731872 299.364469) scale(0.1 -0.1)">
       <use xlink:href="#DejaVuSans-2212"/>
       <use xlink:href="#DejaVuSans-31" transform="translate(83.789062 0)"/>
       <use xlink:href="#DejaVuSans-2e" transform="translate(147.412109 0)"/>
       <use xlink:href="#DejaVuSans-30" transform="translate(179.199219 0)"/>
      </g>
     </g>
    </g>
    <g id="ytick_2">
     <g id="line2d_7">
      <g>
       <use xlink:href="#m8c588abdfb" x="88.014685" y="240.030262" style="stroke: #000000; stroke-width: 0.8"/>
      </g>
     </g>
     <g id="text_7">
      <!-- −0.5 -->
      <g transform="translate(56.731872 243.829481) scale(0.1 -0.1)">
       <use xlink:href="#DejaVuSans-2212"/>
       <use xlink:href="#DejaVuSans-30" transform="translate(83.789062 0)"/>
       <use xlink:href="#DejaVuSans-2e" transform="translate(147.412109 0)"/>
       <use xlink:href="#DejaVuSans-35" transform="translate(179.199219 0)"/>
      </g>
     </g>
    </g>
    <g id="ytick_3">
     <g id="line2d_8">
      <g>
       <use xlink:href="#m8c588abdfb" x="88.014685" y="184.495274" style="stroke: #000000; stroke-width: 0.8"/>
      </g>
     </g>
     <g id="text_8">
      <!-- 0.0 -->
      <g transform="translate(65.11156 188.294493) scale(0.1 -0.1)">
       <use xlink:href="#DejaVuSans-30"/>
       <use xlink:href="#DejaVuSans-2e" transform="translate(63.623047 0)"/>
       <use xlink:href="#DejaVuSans-30" transform="translate(95.410156 0)"/>
      </g>
     </g>
    </g>
    <g id="ytick_4">
     <g id="line2d_9">
      <g>
       <use xlink:href="#m8c588abdfb" x="88.014685" y="128.960286" style="stroke: #000000; stroke-width: 0.8"/>
      </g>
     </g>
     <g id="text_9">
      <!-- 0.5 -->
      <g transform="translate(65.11156 132.759505) scale(0.1 -0.1)">
       <use xlink:href="#DejaVuSans-30"/>
       <use xlink:href="#DejaVuSans-2e" transform="translate(63.623047 0)"/>
       <use xlink:href="#DejaVuSans-35" transform="translate(95.410156 0)"/>
      </g>
     </g>
    </g>
    <g id="ytick_5">
     <g id="line2d_10">
      <g>
       <use xlink:href="#m8c588abdfb" x="88.014685" y="73.425298" style="stroke: #000000; stroke-width: 0.8"/>
      </g>
     </g>
     <g id="text_10">
      <!-- 1.0 -->
      <g transform="translate(65.11156 77.224517) scale(0.1 -0.1)">
       <use xlink:href="#DejaVuSans-31"/>
       <use xlink:href="#DejaVuSans-2e" transform="translate(63.623047 0)"/>
       <use xlink:href="#DejaVuSans-30" transform="translate(95.410156 0)"/>
      </g>
     </g>
    </g>
   </g>
   <g id="line2d_11">
    <path d="M 359.782272 184.495274 
L 359.829444 180.795375 
L 359.650971 177.717085 
L 359.268277 174.931306 
L 358.682104 172.313134 
L 357.889639 169.806221 
L 356.878408 167.356159 
L 355.626192 164.912335 
L 354.066205 162.369584 
L 352.079752 159.579504 
L 349.173064 155.92228 
L 345.429594 151.172077 
L 343.85952 148.804777 
L 342.759396 146.752472 
L 341.955477 144.78708 
L 341.379749 142.783114 
L 341.010095 140.664434 
L 340.839106 138.344979 
L 340.875238 135.650202 
L 341.151363 132.369756 
L 341.819357 127.386947 
L 342.869728 119.457204 
L 343.15073 115.535228 
L 343.162702 112.309217 
L 342.955115 109.534997 
L 342.561384 107.133601 
L 342.001522 105.020979 
L 341.274476 103.119381 
L 340.395031 101.43269 
L 339.381868 99.959287 
L 338.201465 98.638699 
L 336.917992 97.528301 
L 335.487965 96.574647 
L 333.84343 95.75066 
L 332.055969 95.106393 
L 330.051821 94.625553 
L 327.830858 94.328409 
L 325.399251 94.230459 
L 322.671407 94.348322 
L 319.661904 94.702837 
L 316.19781 95.340026 
L 312.034473 96.34324 
L 304.886777 98.34939 
L 300.546776 99.443551 
L 297.966688 99.877801 
L 295.972016 99.995144 
L 294.408284 99.876134 
L 293.092693 99.566554 
L 291.93927 99.076707 
L 290.881311 98.385266 
L 289.912621 97.483409 
L 288.98504 96.306572 
L 288.099316 94.819196 
L 287.184147 92.823031 
L 286.244642 90.213612 
L 285.178457 86.561114 
L 283.605095 80.260709 
L 281.078149 70.225584 
L 279.476198 64.792522 
L 277.925671 60.288245 
L 276.344265 56.367636 
L 274.777672 53.058204 
L 273.206064 50.231864 
L 271.589512 47.773789 
L 270.023553 45.777031 
L 268.457741 44.120906 
L 266.90887 42.78938 
L 265.392387 41.760419 
L 263.834535 40.970069 
L 262.331535 40.452025 
L 260.804213 40.163059 
L 259.350534 40.105201 
L 257.887108 40.258146 
L 256.419943 40.623604 
L 254.86382 41.245057 
L 253.317741 42.105316 
L 251.699793 43.272838 
L 250.109818 44.698371 
L 248.470925 46.473801 
L 246.799375 48.629551 
L 245.192493 51.062211 
L 243.584557 53.891958 
L 241.996656 57.129892 
L 240.451104 60.776824 
L 238.911871 64.994122 
L 237.471913 69.59666 
L 236.105772 74.718652 
L 234.848693 80.293272 
L 233.663801 86.575484 
L 232.524993 93.870745 
L 230.936752 105.827714 
L 230.068932 111.357652 
L 229.400652 114.242121 
L 228.792797 115.969758 
L 228.172717 117.105869 
L 227.561841 117.796082 
L 226.907736 118.206595 
L 226.216155 118.379795 
L 225.444486 118.348785 
L 224.47352 118.074703 
L 223.258588 117.482231 
L 221.674109 116.44351 
L 219.46197 114.699257 
L 216.147043 111.769929 
L 199.122141 96.339643 
L 194.138739 92.280426 
L 189.438657 88.730017 
L 184.967289 85.628217 
L 180.795064 82.999326 
L 176.812365 80.752748 
L 173.21284 78.9676 
L 169.861265 77.540845 
L 166.773938 76.455498 
L 163.959274 75.687426 
L 161.288958 75.189016 
L 158.904296 74.972008 
L 156.796802 75.000446 
L 154.953479 75.237462 
L 153.262837 75.677966 
L 151.818754 76.27648 
L 150.523608 77.050235 
L 149.382559 77.995033 
L 148.399736 79.105591 
L 147.578188 80.375593 
L 146.91985 81.797754 
L 146.400064 83.466357 
L 146.064924 85.286662 
L 145.909106 87.366307 
L 145.962146 89.715133 
L 146.251524 92.337889 
L 146.801201 95.233179 
L 147.629942 98.392458 
L 148.803535 101.949122 
L 150.29006 105.732518 
L 152.149402 109.855651 
L 154.453528 114.414826 
L 157.259035 119.4647 
L 160.89574 125.530321 
L 168.936021 138.759521 
L 170.258221 141.470056 
L 170.98981 143.459382 
L 171.31704 144.945181 
L 171.372027 146.14902 
L 171.203511 147.172163 
L 170.84141 148.03954 
L 170.278454 148.817254 
L 169.46137 149.550874 
L 168.352195 150.235045 
L 166.8346 150.897384 
L 164.734584 151.554731 
L 161.814515 152.221271 
L 157.378351 152.985918 
L 135.715292 156.433565 
L 130.228207 157.653113 
L 125.354083 158.958799 
L 120.994085 160.357971 
L 117.182648 161.815447 
L 113.922458 163.293115 
L 111.068122 164.825514 
L 108.6189 166.391239 
L 106.563641 167.969284 
L 104.882789 169.539836 
L 103.55032 171.084827 
L 102.535531 172.588273 
L 101.766338 174.127886 
L 101.272967 175.603548 
L 101.007584 177.098619 
L 100.972996 178.606608 
L 101.170507 180.120886 
L 101.599906 181.634748 
L 102.259462 183.14149 
L 103.208774 184.727188 
L 104.408512 186.289586 
L 105.943326 187.910167 
L 107.846354 189.573997 
L 110.024457 191.180715 
L 112.594234 192.801107 
L 115.572275 194.41507 
L 118.966197 196.000949 
L 122.772569 197.536264 
L 127.154232 199.056481 
L 131.913166 200.47003 
L 137.18254 201.802981 
L 143.076961 203.059781 
L 149.649313 204.228036 
L 157.517046 205.38715 
L 174.045122 207.725711 
L 176.860589 208.405026 
L 178.628754 209.042215 
L 179.813693 209.689663 
L 180.592434 210.361645 
L 181.05411 211.041522 
L 181.296802 211.80304 
L 181.325266 212.652548 
L 181.12912 213.654074 
L 180.649869 214.896488 
L 179.779126 216.50106 
L 178.298328 218.715678 
L 175.809255 221.987635 
L 162.495697 238.980299 
L 159.338697 243.580833 
L 156.675509 247.847215 
L 154.443945 251.842125 
L 152.645551 255.513739 
L 151.256587 258.831132 
L 150.19587 261.912902 
L 149.447089 264.744089 
L 148.986851 267.317537 
L 148.78685 269.632891 
L 148.823194 271.800124 
L 149.077536 273.709041 
L 149.514764 275.37301 
L 150.139909 276.88867 
L 150.9483 278.249835 
L 151.933704 279.451774 
L 153.088432 280.491278 
L 154.403457 281.36669 
L 155.868549 282.077934 
L 157.565339 282.652276 
L 159.502627 283.065128 
L 161.684388 283.294112 
L 164.10888 283.320381 
L 166.885884 283.117046 
L 169.889457 282.672243 
L 173.341019 281.928993 
L 177.209209 280.86035 
L 181.677258 279.387131 
L 187.323234 277.277478 
L 198.329703 273.106386 
L 201.437599 272.203909 
L 203.769874 271.743893 
L 205.678562 271.581211 
L 207.295236 271.655266 
L 208.723053 271.935682 
L 210.042818 272.423815 
L 211.266908 273.118251 
L 212.457025 274.05696 
L 213.664864 275.308365 
L 214.938388 276.968716 
L 216.372508 279.225263 
L 218.334593 282.772804 
L 222.586466 290.551432 
L 224.59628 293.698625 
L 226.437444 296.182286 
L 228.226482 298.235428 
L 229.992987 299.93446 
L 231.779434 301.344778 
L 233.56946 302.470784 
L 235.3469 303.325554 
L 237.096627 303.928681 
L 238.879977 304.316099 
L 240.687762 304.489159 
L 242.586817 304.447121 
L 244.568138 304.173494 
L 246.620817 303.658006 
L 248.732472 302.898066 
L 251.037302 301.824202 
L 253.512015 300.417197 
L 256.269475 298.588355 
L 259.801553 295.957753 
L 267.726091 289.953739 
L 270.352145 288.304902 
L 272.735041 287.069319 
L 275.01897 286.134066 
L 277.342678 285.420022 
L 279.913302 284.86861 
L 282.953442 284.457286 
L 287.461303 284.102775 
L 293.411394 283.598777 
L 296.616105 283.098443 
L 299.344133 282.450457 
L 301.788983 281.640733 
L 304.010362 280.672691 
L 306.067437 279.539749 
L 308.069719 278.180097 
L 310.000595 276.591242 
L 311.848977 274.781446 
L 313.745112 272.606225 
L 315.74876 269.958583 
L 318.30802 266.17575 
L 322.392759 260.13596 
L 324.471555 257.498768 
L 326.452791 255.337604 
L 328.552514 253.370852 
L 330.983909 251.405991 
L 334.002473 249.267226 
L 339.837073 245.480943 
L 343.860938 242.722195 
L 346.608564 240.575587 
L 348.852522 238.548062 
L 350.760802 236.528552 
L 352.387081 234.488699 
L 353.779737 232.391158 
L 354.975635 230.189137 
L 355.971536 227.894549 
L 356.791906 225.45331 
L 357.447567 222.806822 
L 357.939817 219.895863 
L 358.278908 216.521049 
L 358.465945 212.277436 
L 358.959342 195.265777 
L 359.782272 184.495274 
L 359.782272 184.495274 
" clip-path="url(#p3eecd2f642)" style="fill: none; stroke: #1f77b4; stroke-width: 1.5; stroke-linecap: square"/>
   </g>
   <g id="patch_3">
    <path d="M 88.014685 317.72 
L 88.014685 26.88 
" style="fill: none; stroke: #000000; stroke-width: 0.8; stroke-linejoin: miter; stroke-linecap: square"/>
   </g>
   <g id="patch_4">
    <path d="M 372.785315 317.72 
L 372.785315 26.88 
" style="fill: none; stroke: #000000; stroke-width: 0.8; stroke-linejoin: miter; stroke-linecap: square"/>
   </g>
   <g id="patch_5">
    <path d="M 88.014685 317.72 
L 372.785315 317.72 
" style="fill: none; stroke: #000000; stroke-width: 0.8; stroke-linejoin: miter; stroke-linecap: square"/>
   </g>
   <g id="patch_6">
    <path d="M 88.014685 26.88 
L 372.785315 26.88 
" style="fill: none; stroke: #000000; stroke-width: 0.8; stroke-linejoin: miter; stroke-linecap: square"/>
   </g>
   <g id="text_11">
    <!-- Optimized shape -->
    <g transform="translate(179.674687 20.88) scale(0.12 -0.12)">
     <defs>
      <path id="DejaVuSans-4f" d="M 2522 4238 
Q 1834 4238 1429 3725 
Q 1025 3213 1025 2328 
Q 1025 1447 1429 934 
Q 1834 422 2522 422 
Q 3209 422 3611 934 
Q 4013 1447 4013 2328 
Q 4013 3213 3611 3725 
Q 3209 4238 2522 4238 
z
M 2522 4750 
Q 3503 4750 4090 4092 
Q 4678 3434 4678 2328 
Q 4678 1225 4090 567 
Q 3503 -91 2522 -91 
Q 1538 -91 948 565 
Q 359 1222 359 2328 
Q 359 3434 948 4092 
Q 1538 4750 2522 4750 
z
" transform="scale(0.015625)"/>
      <path id="DejaVuSans-70" d="M 1159 525 
L 1159 -1331 
L 581 -1331 
L 581 3500 
L 1159 3500 
L 1159 2969 
Q 1341 3281 1617 3432 
Q 1894 3584 2278 3584 
Q 2916 3584 3314 3078 
Q 3713 2572 3713 1747 
Q 3713 922 3314 415 
Q 2916 -91 2278 -91 
Q 1894 -91 1617 61 
Q 1341 213 1159 525 
z
M 3116 1747 
Q 3116 2381 2855 2742 
Q 2594 3103 2138 3103 
Q 1681 3103 1420 2742 
Q 1159 2381 1159 1747 
Q 1159 1113 1420 752 
Q 1681 391 2138 391 
Q 2594 391 2855 752 
Q 3116 1113 3116 1747 
z
" transform="scale(0.015625)"/>
      <path id="DejaVuSans-74" d="M 1172 4494 
L 1172 3500 
L 2356 3500 
L 2356 3053 
L 1172 3053 
L 1172 1153 
Q 1172 725 1289 603 
Q 1406 481 1766 481 
L 2356 481 
L 2356 0 
L 1766 0 
Q 1100 0 847 248 
Q 594 497 594 1153 
L 594 3053 
L 172 3053 
L 172 3500 
L 594 3500 
L 594 4494 
L 1172 4494 
z
" transform="scale(0.015625)"/>
      <path id="DejaVuSans-69" d="M 603 3500 
L 1178 3500 
L 1178 0 
L 603 0 
L 603 3500 
z
M 603 4863 
L 1178 4863 
L 1178 4134 
L 603 4134 
L 603 4863 
z
" transform="scale(0.015625)"/>
      <path id="DejaVuSans-6d" d="M 3328 2828 
Q 3544 3216 3844 3400 
Q 4144 3584 4550 3584 
Q 5097 3584 5394 3201 
Q 5691 2819 5691 2113 
L 5691 0 
L 5113 0 
L 5113 2094 
Q 5113 2597 4934 2840 
Q 4756 3084 4391 3084 
Q 3944 3084 3684 2787 
Q 3425 2491 3425 1978 
L 3425 0 
L 2847 0 
L 2847 2094 
Q 2847 2600 2669 2842 
Q 2491 3084 2119 3084 
Q 1678 3084 1418 2786 
Q 1159 2488 1159 1978 
L 1159 0 
L 581 0 
L 581 3500 
L 1159 3500 
L 1159 2956 
Q 1356 3278 1631 3431 
Q 1906 3584 2284 3584 
Q 2666 3584 2933 3390 
Q 3200 3197 3328 2828 
z
" transform="scale(0.015625)"/>
      <path id="DejaVuSans-7a" d="M 353 3500 
L 3084 3500 
L 3084 2975 
L 922 459 
L 3084 459 
L 3084 0 
L 275 0 
L 275 525 
L 2438 3041 
L 353 3041 
L 353 3500 
z
" transform="scale(0.015625)"/>
      <path id="DejaVuSans-65" d="M 3597 1894 
L 3597 1613 
L 953 1613 
Q 991 1019 1311 708 
Q 1631 397 2203 397 
Q 2534 397 2845 478 
Q 3156 559 3463 722 
L 3463 178 
Q 3153 47 2828 -22 
Q 2503 -91 2169 -91 
Q 1331 -91 842 396 
Q 353 884 353 1716 
Q 353 2575 817 3079 
Q 1281 3584 2069 3584 
Q 2775 3584 3186 3129 
Q 3597 2675 3597 1894 
z
M 3022 2063 
Q 3016 2534 2758 2815 
Q 2500 3097 2075 3097 
Q 1594 3097 1305 2825 
Q 1016 2553 972 2059 
L 3022 2063 
z
" transform="scale(0.015625)"/>
      <path id="DejaVuSans-64" d="M 2906 2969 
L 2906 4863 
L 3481 4863 
L 3481 0 
L 2906 0 
L 2906 525 
Q 2725 213 2448 61 
Q 2172 -91 1784 -91 
Q 1150 -91 751 415 
Q 353 922 353 1747 
Q 353 2572 751 3078 
Q 1150 3584 1784 3584 
Q 2172 3584 2448 3432 
Q 2725 3281 2906 2969 
z
M 947 1747 
Q 947 1113 1208 752 
Q 1469 391 1925 391 
Q 2381 391 2643 752 
Q 2906 1113 2906 1747 
Q 2906 2381 2643 2742 
Q 2381 3103 1925 3103 
Q 1469 3103 1208 2742 
Q 947 2381 947 1747 
z
" transform="scale(0.015625)"/>
      <path id="DejaVuSans-20" transform="scale(0.015625)"/>
      <path id="DejaVuSans-73" d="M 2834 3397 
L 2834 2853 
Q 2591 2978 2328 3040 
Q 2066 3103 1784 3103 
Q 1356 3103 1142 2972 
Q 928 2841 928 2578 
Q 928 2378 1081 2264 
Q 1234 2150 1697 2047 
L 1894 2003 
Q 2506 1872 2764 1633 
Q 3022 1394 3022 966 
Q 3022 478 2636 193 
Q 2250 -91 1575 -91 
Q 1294 -91 989 -36 
Q 684 19 347 128 
L 347 722 
Q 666 556 975 473 
Q 1284 391 1588 391 
Q 1994 391 2212 530 
Q 2431 669 2431 922 
Q 2431 1156 2273 1281 
Q 2116 1406 1581 1522 
L 1381 1569 
Q 847 1681 609 1914 
Q 372 2147 372 2553 
Q 372 3047 722 3315 
Q 1072 3584 1716 3584 
Q 2034 3584 2315 3537 
Q 2597 3491 2834 3397 
z
" transform="scale(0.015625)"/>
      <path id="DejaVuSans-68" d="M 3513 2113 
L 3513 0 
L 2938 0 
L 2938 2094 
Q 2938 2591 2744 2837 
Q 2550 3084 2163 3084 
Q 1697 3084 1428 2787 
Q 1159 2491 1159 1978 
L 1159 0 
L 581 0 
L 581 4863 
L 1159 4863 
L 1159 2956 
Q 1366 3272 1645 3428 
Q 1925 3584 2291 3584 
Q 2894 3584 3203 3211 
Q 3513 2838 3513 2113 
z
" transform="scale(0.015625)"/>
      <path id="DejaVuSans-61" d="M 2194 1759 
Q 1497 1759 1228 1600 
Q 959 1441 959 1056 
Q 959 750 1161 570 
Q 1363 391 1709 391 
Q 2188 391 2477 730 
Q 2766 1069 2766 1631 
L 2766 1759 
L 2194 1759 
z
M 3341 1997 
L 3341 0 
L 2766 0 
L 2766 531 
Q 2569 213 2275 61 
Q 1981 -91 1556 -91 
Q 1019 -91 701 211 
Q 384 513 384 1019 
Q 384 1609 779 1909 
Q 1175 2209 1959 2209 
L 2766 2209 
L 2766 2266 
Q 2766 2663 2505 2880 
Q 2244 3097 1772 3097 
Q 1472 3097 1187 3025 
Q 903 2953 641 2809 
L 641 3341 
Q 956 3463 1253 3523 
Q 1550 3584 1831 3584 
Q 2591 3584 2966 3190 
Q 3341 2797 3341 1997 
z
" transform="scale(0.015625)"/>
     </defs>
     <use xlink:href="#DejaVuSans-4f"/>
     <use xlink:href="#DejaVuSans-70" transform="translate(78.710938 0)"/>
     <use xlink:href="#DejaVuSans-74" transform="translate(142.1875 0)"/>
     <use xlink:href="#DejaVuSans-69" transform="translate(181.396484 0)"/>
     <use xlink:href="#DejaVuSans-6d" transform="translate(209.179688 0)"/>
     <use xlink:href="#DejaVuSans-69" transform="translate(306.591797 0)"/>
     <use xlink:href="#DejaVuSans-7a" transform="translate(334.375 0)"/>
     <use xlink:href="#DejaVuSans-65" transform="translate(386.865234 0)"/>
     <use xlink:href="#DejaVuSans-64" transform="translate(448.388672 0)"/>
     <use xlink:href="#DejaVuSans-20" transform="translate(511.865234 0)"/>
     <use xlink:href="#DejaVuSans-73" transform="translate(543.652344 0)"/>
     <use xlink:href="#DejaVuSans-68" transform="translate(595.751953 0)"/>
     <use xlink:href="#DejaVuSans-61" transform="translate(659.130859 0)"/>
     <use xlink:href="#DejaVuSans-70" transform="translate(720.410156 0)"/>
     <use xlink:href="#DejaVuSans-65" transform="translate(783.886719 0)"/>
    </g>
   </g>
  </g>
 </g>
 <defs>
  <clipPath id="p3eecd2f642">
   <rect x="88.014685" y="26.88" width="284.770631" height="290.84"/>
  </clipPath>
 </defs>
</svg>
